<mxfile host="app.diagrams.net" modified="2023-05-16T10:03:50.124Z" agent="Mozilla/5.0 (Windows NT 10.0; Win64; x64) AppleWebKit/537.36 (KHTML, like Gecko) Chrome/113.0.0.0 Safari/537.36" etag="eG9fbPhBcpkLTw8jmTs2" version="21.3.0" type="github" pages="2">
  <diagram name="VOCinputFormGenerate" id="OVq0kKJQF_dtdeYAqWoL">
    <mxGraphModel dx="1434" dy="756" grid="1" gridSize="10" guides="1" tooltips="1" connect="1" arrows="1" fold="1" page="1" pageScale="1" pageWidth="827" pageHeight="1169" math="0" shadow="0">
      <root>
        <mxCell id="0" />
        <mxCell id="1" parent="0" />
        <mxCell id="EK5y3Szh5_HhxoA4i9LE-2" value="呼叫AF背景程式&lt;br&gt;AF Main" style="shape=process;whiteSpace=wrap;html=1;backgroundOutline=1;" parent="1" vertex="1">
          <mxGeometry x="40" y="150" width="120" height="60" as="geometry" />
        </mxCell>
        <mxCell id="EK5y3Szh5_HhxoA4i9LE-3" value="按鈕開始" style="ellipse;whiteSpace=wrap;html=1;" parent="1" vertex="1">
          <mxGeometry x="40" y="30" width="120" height="80" as="geometry" />
        </mxCell>
        <mxCell id="EK5y3Szh5_HhxoA4i9LE-4" value="" style="endArrow=classic;html=1;rounded=0;exitX=0.5;exitY=1;exitDx=0;exitDy=0;" parent="1" source="EK5y3Szh5_HhxoA4i9LE-3" target="EK5y3Szh5_HhxoA4i9LE-2" edge="1">
          <mxGeometry width="50" height="50" relative="1" as="geometry">
            <mxPoint x="390" y="410" as="sourcePoint" />
            <mxPoint x="440" y="360" as="targetPoint" />
          </mxGeometry>
        </mxCell>
      </root>
    </mxGraphModel>
  </diagram>
  <diagram id="Hbq8hFVYwE-h4AKD5gAm" name="AF Main">
    <mxGraphModel dx="1509" dy="796" grid="1" gridSize="10" guides="1" tooltips="1" connect="1" arrows="1" fold="1" page="1" pageScale="1" pageWidth="827" pageHeight="1169" math="0" shadow="0">
      <root>
        <mxCell id="0" />
        <mxCell id="1" parent="0" />
        <mxCell id="mipKG1LSkC016bs67_O5-3" value="&lt;h1&gt;Generated VOCinputForm&lt;/h1&gt;&lt;p&gt;Standard File Name&lt;/p&gt;&lt;p&gt;Same Formate&lt;/p&gt;&lt;p&gt;Summary Page&lt;/p&gt;&lt;p&gt;Generate batchID&lt;/p&gt;&lt;p&gt;Select data from VOCbase where (parameter in VOCinputFormGenerate)&lt;/p&gt;&lt;p&gt;Seperate page by Equipment name&lt;/p&gt;" style="text;html=1;strokeColor=none;fillColor=none;spacing=5;spacingTop=-20;whiteSpace=wrap;overflow=hidden;rounded=0;" parent="1" vertex="1">
          <mxGeometry x="20" y="30" width="430" height="230" as="geometry" />
        </mxCell>
        <mxCell id="mipKG1LSkC016bs67_O5-4" value="&lt;h1&gt;Insert VOCgenData table&lt;/h1&gt;&lt;p&gt;genID&lt;/p&gt;&lt;p&gt;insTime&lt;/p&gt;" style="text;html=1;strokeColor=none;fillColor=none;spacing=5;spacingTop=-20;whiteSpace=wrap;overflow=hidden;rounded=0;" parent="1" vertex="1">
          <mxGeometry x="20" y="310" width="390" height="120" as="geometry" />
        </mxCell>
        <mxCell id="ZQuR9fCjy04hKhv9iW0d-1" style="edgeStyle=orthogonalEdgeStyle;rounded=0;orthogonalLoop=1;jettySize=auto;html=1;exitX=0.5;exitY=1;exitDx=0;exitDy=0;entryX=0.5;entryY=0;entryDx=0;entryDy=0;" parent="1" source="jLq9XiMe_REikYLtEl_0-1" target="jLq9XiMe_REikYLtEl_0-3" edge="1">
          <mxGeometry relative="1" as="geometry" />
        </mxCell>
        <mxCell id="jLq9XiMe_REikYLtEl_0-1" value="genInputForm&lt;br&gt;Start" style="ellipse;whiteSpace=wrap;html=1;" parent="1" vertex="1">
          <mxGeometry x="800" y="30" width="120" height="80" as="geometry" />
        </mxCell>
        <mxCell id="ZQuR9fCjy04hKhv9iW0d-2" style="edgeStyle=orthogonalEdgeStyle;rounded=0;orthogonalLoop=1;jettySize=auto;html=1;exitX=0.5;exitY=1;exitDx=0;exitDy=0;entryX=0.5;entryY=0;entryDx=0;entryDy=0;" parent="1" source="jLq9XiMe_REikYLtEl_0-3" target="jLq9XiMe_REikYLtEl_0-4" edge="1">
          <mxGeometry relative="1" as="geometry" />
        </mxCell>
        <mxCell id="jLq9XiMe_REikYLtEl_0-3" value="Get paramemter from VOCinputGenerate" style="rounded=0;whiteSpace=wrap;html=1;" parent="1" vertex="1">
          <mxGeometry x="695" y="150" width="330" height="60" as="geometry" />
        </mxCell>
        <mxCell id="jLq9XiMe_REikYLtEl_0-4" value="Open DB" style="rounded=0;whiteSpace=wrap;html=1;" parent="1" vertex="1">
          <mxGeometry x="800" y="250" width="120" height="60" as="geometry" />
        </mxCell>
        <mxCell id="jLq9XiMe_REikYLtEl_0-9" value="queryTable&lt;br&gt;Select VOCbase" style="shape=process;whiteSpace=wrap;html=1;backgroundOutline=1;" parent="1" vertex="1">
          <mxGeometry x="800" y="360" width="120" height="60" as="geometry" />
        </mxCell>
        <mxCell id="jLq9XiMe_REikYLtEl_0-32" style="edgeStyle=orthogonalEdgeStyle;rounded=0;orthogonalLoop=1;jettySize=auto;html=1;exitX=0.5;exitY=1;exitDx=0;exitDy=0;entryX=0.5;entryY=0;entryDx=0;entryDy=0;" parent="1" source="jLq9XiMe_REikYLtEl_0-11" target="jLq9XiMe_REikYLtEl_0-13" edge="1">
          <mxGeometry relative="1" as="geometry" />
        </mxCell>
        <mxCell id="jLq9XiMe_REikYLtEl_0-11" value="queryTable&lt;br&gt;start" style="ellipse;whiteSpace=wrap;html=1;" parent="1" vertex="1">
          <mxGeometry x="1390" y="20" width="120" height="80" as="geometry" />
        </mxCell>
        <mxCell id="jLq9XiMe_REikYLtEl_0-33" style="edgeStyle=orthogonalEdgeStyle;rounded=0;orthogonalLoop=1;jettySize=auto;html=1;exitX=0.5;exitY=1;exitDx=0;exitDy=0;entryX=0.5;entryY=0;entryDx=0;entryDy=0;" parent="1" source="jLq9XiMe_REikYLtEl_0-13" target="jLq9XiMe_REikYLtEl_0-31" edge="1">
          <mxGeometry relative="1" as="geometry" />
        </mxCell>
        <mxCell id="jLq9XiMe_REikYLtEl_0-13" value="numberOfSheets = Select count(Equipment)" style="rounded=0;whiteSpace=wrap;html=1;" parent="1" vertex="1">
          <mxGeometry x="1330" y="140" width="240" height="60" as="geometry" />
        </mxCell>
        <mxCell id="jLq9XiMe_REikYLtEl_0-16" value="Paste SQL data to VOCnewFile" style="shape=process;whiteSpace=wrap;html=1;backgroundOutline=1;" parent="1" vertex="1">
          <mxGeometry x="800" y="940" width="120" height="60" as="geometry" />
        </mxCell>
        <mxCell id="jLq9XiMe_REikYLtEl_0-17" value="genInputForm&lt;br&gt;End" style="ellipse;whiteSpace=wrap;html=1;" parent="1" vertex="1">
          <mxGeometry x="800" y="1030" width="120" height="80" as="geometry" />
        </mxCell>
        <mxCell id="jLq9XiMe_REikYLtEl_0-18" value="InsertTable&lt;br&gt;Start" style="ellipse;whiteSpace=wrap;html=1;" parent="1" vertex="1">
          <mxGeometry x="250" y="505" width="120" height="80" as="geometry" />
        </mxCell>
        <mxCell id="jLq9XiMe_REikYLtEl_0-19" value="Open DB" style="rounded=0;whiteSpace=wrap;html=1;" parent="1" vertex="1">
          <mxGeometry x="250" y="810" width="120" height="60" as="geometry" />
        </mxCell>
        <mxCell id="jLq9XiMe_REikYLtEl_0-20" value="generate genID, insTime" style="rounded=0;whiteSpace=wrap;html=1;" parent="1" vertex="1">
          <mxGeometry x="190" y="620" width="240" height="60" as="geometry" />
        </mxCell>
        <mxCell id="jLq9XiMe_REikYLtEl_0-21" value="concatenate input query string" style="rounded=0;whiteSpace=wrap;html=1;" parent="1" vertex="1">
          <mxGeometry x="180" y="720" width="260" height="60" as="geometry" />
        </mxCell>
        <mxCell id="jLq9XiMe_REikYLtEl_0-22" value="insert DB" style="rounded=0;whiteSpace=wrap;html=1;" parent="1" vertex="1">
          <mxGeometry x="250" y="910" width="120" height="60" as="geometry" />
        </mxCell>
        <mxCell id="jLq9XiMe_REikYLtEl_0-23" value="InsertTable&lt;br&gt;End" style="ellipse;whiteSpace=wrap;html=1;" parent="1" vertex="1">
          <mxGeometry x="250" y="1010" width="120" height="80" as="geometry" />
        </mxCell>
        <mxCell id="ZyuVnkTIiAExopm50sFG-4" style="edgeStyle=orthogonalEdgeStyle;rounded=0;orthogonalLoop=1;jettySize=auto;html=1;exitX=0.5;exitY=1;exitDx=0;exitDy=0;entryX=0.46;entryY=0.033;entryDx=0;entryDy=0;entryPerimeter=0;" edge="1" parent="1" source="jLq9XiMe_REikYLtEl_0-31" target="ZQuR9fCjy04hKhv9iW0d-3">
          <mxGeometry relative="1" as="geometry" />
        </mxCell>
        <mxCell id="ZyuVnkTIiAExopm50sFG-10" style="edgeStyle=orthogonalEdgeStyle;rounded=0;orthogonalLoop=1;jettySize=auto;html=1;entryX=0;entryY=0.5;entryDx=0;entryDy=0;" edge="1" parent="1" source="jLq9XiMe_REikYLtEl_0-31" target="jLq9XiMe_REikYLtEl_0-36">
          <mxGeometry relative="1" as="geometry">
            <mxPoint x="1170" y="820" as="targetPoint" />
            <Array as="points">
              <mxPoint x="1220" y="290" />
              <mxPoint x="1220" y="1150" />
            </Array>
          </mxGeometry>
        </mxCell>
        <mxCell id="jLq9XiMe_REikYLtEl_0-31" value="for i = i to numberOfSheets" style="rhombus;whiteSpace=wrap;html=1;" parent="1" vertex="1">
          <mxGeometry x="1330" y="250" width="240" height="80" as="geometry" />
        </mxCell>
        <mxCell id="jLq9XiMe_REikYLtEl_0-36" value="queryTable" style="ellipse;whiteSpace=wrap;html=1;" parent="1" vertex="1">
          <mxGeometry x="1404" y="1110" width="120" height="80" as="geometry" />
        </mxCell>
        <mxCell id="ZQuR9fCjy04hKhv9iW0d-3" value="Vertical Container" style="swimlane;whiteSpace=wrap;html=1;" parent="1" vertex="1">
          <mxGeometry x="1289" y="420" width="350" height="610" as="geometry" />
        </mxCell>
        <mxCell id="jLq9XiMe_REikYLtEl_0-2" value="Copy VOCinputForm&lt;br&gt;rename&lt;br&gt;newFile=檔案名稱+檢驗ID+.xlsx" style="rounded=0;whiteSpace=wrap;html=1;" parent="ZQuR9fCjy04hKhv9iW0d-3" vertex="1">
          <mxGeometry x="60" y="40" width="230" height="60" as="geometry" />
        </mxCell>
        <mxCell id="jLq9XiMe_REikYLtEl_0-10" value="Paste SQL data &lt;br&gt;to newFile.Summary" style="rounded=0;whiteSpace=wrap;html=1;" parent="ZQuR9fCjy04hKhv9iW0d-3" vertex="1">
          <mxGeometry x="45" y="120" width="260" height="60" as="geometry" />
        </mxCell>
        <mxCell id="jLq9XiMe_REikYLtEl_0-14" value="Copy VOCinputFormGenerte.form&lt;br&gt;to newFile" style="rounded=0;whiteSpace=wrap;html=1;" parent="ZQuR9fCjy04hKhv9iW0d-3" vertex="1">
          <mxGeometry x="15" y="205" width="320" height="60" as="geometry" />
        </mxCell>
        <mxCell id="ZyuVnkTIiAExopm50sFG-2" value="fill static data: &lt;br&gt;檢驗類別、設備代號、區域" style="rounded=0;whiteSpace=wrap;html=1;" vertex="1" parent="ZQuR9fCjy04hKhv9iW0d-3">
          <mxGeometry x="70" y="490" width="210" height="60" as="geometry" />
        </mxCell>
        <mxCell id="jLq9XiMe_REikYLtEl_0-28" value="Select&amp;nbsp; componentID, type, fluid, content, lastDate&lt;br&gt;from VOCbase&lt;br&gt;wehre eqNo" style="rounded=0;whiteSpace=wrap;html=1;" parent="ZQuR9fCjy04hKhv9iW0d-3" vertex="1">
          <mxGeometry x="25" y="290" width="300" height="60" as="geometry" />
        </mxCell>
        <mxCell id="ZyuVnkTIiAExopm50sFG-5" style="edgeStyle=orthogonalEdgeStyle;rounded=0;orthogonalLoop=1;jettySize=auto;html=1;exitX=0.5;exitY=1;exitDx=0;exitDy=0;" edge="1" parent="ZQuR9fCjy04hKhv9iW0d-3" source="ZyuVnkTIiAExopm50sFG-1" target="ZyuVnkTIiAExopm50sFG-2">
          <mxGeometry relative="1" as="geometry" />
        </mxCell>
        <mxCell id="ZyuVnkTIiAExopm50sFG-1" value="generate item id" style="rounded=0;whiteSpace=wrap;html=1;" vertex="1" parent="ZQuR9fCjy04hKhv9iW0d-3">
          <mxGeometry x="115" y="400" width="120" height="60" as="geometry" />
        </mxCell>
        <mxCell id="ZyuVnkTIiAExopm50sFG-3" value="" style="edgeStyle=orthogonalEdgeStyle;rounded=0;orthogonalLoop=1;jettySize=auto;html=1;exitX=0.5;exitY=1;exitDx=0;exitDy=0;" edge="1" parent="ZQuR9fCjy04hKhv9iW0d-3" source="jLq9XiMe_REikYLtEl_0-28" target="ZyuVnkTIiAExopm50sFG-1">
          <mxGeometry relative="1" as="geometry">
            <mxPoint x="175" y="350" as="sourcePoint" />
            <mxPoint x="150" y="650" as="targetPoint" />
          </mxGeometry>
        </mxCell>
        <mxCell id="ZyuVnkTIiAExopm50sFG-8" style="edgeStyle=orthogonalEdgeStyle;rounded=0;orthogonalLoop=1;jettySize=auto;html=1;exitX=0.5;exitY=1;exitDx=0;exitDy=0;entryX=1;entryY=0.5;entryDx=0;entryDy=0;" edge="1" parent="1" source="ZyuVnkTIiAExopm50sFG-2" target="jLq9XiMe_REikYLtEl_0-31">
          <mxGeometry relative="1" as="geometry">
            <mxPoint x="1810" y="630" as="targetPoint" />
            <Array as="points">
              <mxPoint x="1464" y="990" />
              <mxPoint x="1960" y="990" />
              <mxPoint x="1960" y="290" />
            </Array>
          </mxGeometry>
        </mxCell>
      </root>
    </mxGraphModel>
  </diagram>
</mxfile>
